<?xml version="1.0" encoding="utf-8"?>
<!-- Generator: Adobe Illustrator 21.0.2, SVG Export Plug-In . SVG Version: 6.00 Build 0)  -->
<svg version="1.1" id="Layer_1" xmlns="http://www.w3.org/2000/svg" xmlns:xlink="http://www.w3.org/1999/xlink" x="0px" y="0px"
	 viewBox="0 0 600 600" style="enable-background:new 0 0 600 600;" xml:space="preserve">
<style type="text/css">
	.st0{fill:#F0F0F0;}
	.st1{fill:#D2D2D3;}
</style>
<g>
	<path class="st0" d="M600,0H0v600h38.2c2.2-21.4,7.1-54.3,10.5-67.3c7.7-30.1,26.4-49.3,58.7-54.2c15.3-2.3,30.8-5.1,45.3-11.3
		c14.1-6,28.4-11.4,42.7-16.7c7.9-2.9,13.1-7,13-16.3c-0.1-3.3,2.2-6.5,2.7-9.9c1.2-9.3,5.3-15.6,15.2-17.7c2.7-0.6,6.6-4.1,6.8-6.5
		c0.9-15.9,5.3-32.1-5.5-46.9c-3.8-5.2-5.2-12.2-7.6-18.4c-3.2-8.3-2.8-18.4-12.5-23.2c-0.8-0.4-1.4-1.7-1.7-2.7
		c-3.8-15.1-7.9-30.2-10.9-45.5c-0.7-3.3,2.7-7.5,4.3-11.3c0.9,0.2,1.8,0.4,2.7,0.6c-1.1-11.4-2.3-22.7-3.2-34.1
		c-0.8-9.2-3.2-18.9-1.5-27.7c4.4-22.6,22.7-37.1,35-55.1c0.7-1,2.2-1.5,3.4-2c9.2-3.6,18.5-7.1,29.6-11.4c-1.9-0.5-3.4-0.9-4.9-1.3
		c0.2-0.1,0.5-0.3,0.7-0.4c3.7,0.5,7.4,1.1,12.9,1.9c-3.7-4.2-6.1-7-7.3-8.4c11,0.9,22.5,2.3,33.9,2.6c24.9,0.6,47.9,6.1,67.5,22.4
		c9.5,8,16.4,18.6,23.5,28.3c5.6,7.6,6.6,20.1,6.4,30.4c-0.3,18.3-3.1,36.5-4.9,55.4c8.3,0.9,7.9,7.1,7.5,13.1
		c-0.2,3.4-0.5,7-1.5,10.2c-3.7,11.9-5.2,25.6-12.5,34.8c-5.7,7.2-8.1,14.6-11.1,22.3c-2.3,5.9-3.7,12.5-7.2,17.7
		c-8.3,12.4-8.5,25.8-7.2,39.7c0.2,1.9,0.6,3.7,0.4,5.6c-0.5,5.8,2.5,9.4,7.8,10.2c9.9,1.5,13.6,8.2,15.5,16.7
		c1.2,5.4,1.8,11,3.3,16.4c0.8,2.6,2.6,5.8,4.8,7c28.9,14.5,59.2,25.5,91.1,30.7c32,5.1,53.7,21.2,61.5,53
		c5.1,20.8,8.2,42.1,11.5,63.3c0.2,1.3,0.8,3.5,1.5,5.9H600V0z"/>
	<path class="st1" d="M545.2,530.7c-7.8-31.7-29.5-47.9-61.5-53c-31.9-5.1-62.2-16.2-91.1-30.7c-2.2-1.1-4.1-4.3-4.8-7
		c-1.5-5.3-2.1-10.9-3.3-16.4c-1.9-8.5-5.7-15.2-15.5-16.7c-5.3-0.8-8.2-4.4-7.8-10.2c0.1-1.8-0.2-3.7-0.4-5.6
		c-1.3-13.9-1.1-27.4,7.2-39.7c3.5-5.2,4.9-11.7,7.2-17.7c3-7.7,5.4-15.1,11.1-22.3c7.2-9.2,8.8-22.9,12.5-34.8
		c1-3.3,1.3-6.8,1.5-10.2c0.4-6,0.9-12.1-7.5-13.1c1.8-18.9,4.6-37.1,4.9-55.4c0.2-10.3-0.7-22.8-6.4-30.4
		c-7.1-9.7-14-20.3-23.5-28.3c-19.5-16.3-42.6-21.8-67.5-22.4c-11.5-0.3-22.9-1.7-33.9-2.6c1.2,1.4,3.6,4.2,7.3,8.4
		c-5.4-0.8-9.2-1.3-12.9-1.9c-0.2,0.1-0.5,0.3-0.7,0.4c1.5,0.4,3,0.8,4.9,1.3c-11.1,4.3-20.4,7.8-29.6,11.4c-1.2,0.5-2.8,1-3.4,2
		c-12.3,18-30.6,32.5-35,55.1c-1.7,8.8,0.7,18.5,1.5,27.7c1,11.4,2.1,22.7,3.2,34.1c-0.9-0.2-1.8-0.4-2.7-0.6
		c-1.5,3.8-4.9,7.9-4.3,11.3c3,15.3,7.1,30.3,10.9,45.5c0.2,1,0.9,2.3,1.7,2.7c9.7,4.8,9.3,15,12.5,23.2c2.4,6.2,3.8,13.2,7.6,18.4
		c10.8,14.8,6.4,31.1,5.5,46.9c-0.1,2.4-4.1,5.9-6.8,6.5c-9.9,2.1-13.9,8.4-15.2,17.7c-0.4,3.4-2.7,6.6-2.7,9.9
		c0.2,9.3-5.1,13.4-13,16.3c-14.4,5.2-28.7,10.7-42.7,16.7c-14.6,6.2-30,9-45.3,11.3c-32.3,4.9-50.9,24.1-58.7,54.2
		c-3.3,13-8.3,45.9-10.5,67.3h519.9c-0.7-2.5-1.3-4.6-1.5-5.9C553.4,572.9,550.3,551.5,545.2,530.7z"/>
</g>
</svg>
