<!-- Generated by IcoMoon.io -->
<svg version="1.1" xmlns="http://www.w3.org/2000/svg" width="32" height="32" viewBox="0 0 32 32">
<title>art_track</title>
<path d="M14 20.667l-3-4-2.313 3-1.688-2-2.313 3h9.313zM16 12.667v8c0 1.438-1.25 2.688-2.688 2.688h-8c-1.438 0-2.625-1.25-2.625-2.688v-8c0-1.438 1.188-2.688 2.625-2.688h8c1.438 0 2.688 1.25 2.688 2.688zM18.688 23.354v-2.688h10.625v2.688h-10.625zM29.313 9.979v2.688h-10.625v-2.688h10.625zM29.313 17.979h-10.625v-2.625h10.625v2.625z"></path>
</svg>
