<!-- Generated by IcoMoon.io -->
<svg version="1.1" xmlns="http://www.w3.org/2000/svg" width="32" height="32" viewBox="0 0 32 32">
<title>attach_file</title>
<path d="M22 8.667h2v15.313c0 4.063-3.25 7.375-7.313 7.375s-7.375-3.313-7.375-7.375v-16.625c0-2.938 2.438-5.375 5.375-5.375s5.313 2.438 5.313 5.375v14c0 1.813-1.5 3.313-3.313 3.313s-3.375-1.5-3.375-3.313v-12.688h2v12.688c0 0.75 0.625 1.313 1.375 1.313s1.313-0.563 1.313-1.313v-14c0-1.813-1.5-3.375-3.313-3.375s-3.375 1.563-3.375 3.375v16.625c0 2.938 2.438 5.375 5.375 5.375s5.313-2.438 5.313-5.375v-15.313z"></path>
</svg>
