<!-- Generated by IcoMoon.io -->
<svg version="1.1" xmlns="http://www.w3.org/2000/svg" width="32" height="32" viewBox="0 0 32 32">
<title>background</title>
<path d="M5.6 3.2h20.8c1.045 0 1.934 0.668 2.263 1.6h-1.463v1.6h1.6v1.6h-1.6v1.6h1.6v1.6h-1.6v1.6h1.6v1.6h-1.6v1.6h1.6v1.6h-1.6v1.6h1.6v1.6h-1.6v1.6h1.6v1.6h-1.6v1.6h1.6v0.8c0 0.28-0.048 0.55-0.137 0.8h-1.463v1.463c-0.25 0.088-0.52 0.137-0.8 0.137h-0.8v-1.6h-1.6v1.6h-1.6v-1.6h-1.6v1.6h-1.6v-1.6h-1.6v1.6h-1.6v-1.6h-1.6v1.6h-1.6v-1.6h-1.6v1.6h-1.6v-1.6h-1.6v1.6h-1.6v-1.6h-1.6v1.463c-0.932-0.329-1.6-1.218-1.6-2.263v-20.8c0-1.325 1.075-2.4 2.4-2.4zM25.6 8h1.6v-1.6h-1.6v1.6zM25.6 9.6v-1.6h-1.6v1.6h-1.6v1.6h-1.6v1.6h-1.6v1.6h-1.6v1.6h-1.6v1.6h-1.6v1.6h-1.6v1.6h-1.6v1.6h-1.6v1.6h-1.6v1.6h-1.6v1.6h1.6v-1.6h1.6v1.6h1.6v-1.6h1.6v1.6h1.6v-1.6h1.6v1.6h1.6v-1.6h1.6v1.6h1.6v-1.6h1.6v1.6h1.6v-1.6h1.6v1.6h1.6v-1.6h-1.6v-1.6h1.6v-1.6h-1.6v-1.6h1.6v-1.6h-1.6v-1.6h1.6v-1.6h-1.6v-1.6h1.6v-1.6h-1.6v-1.6h1.6v-1.6h-1.6zM24 11.2v-1.6h1.6v1.6h-1.6zM24 12.8h1.6v1.6h-1.6v1.6h1.6v1.6h-1.6v1.6h1.6v1.6h-1.6v1.6h1.6v1.6h-1.6v1.6h-1.6v-1.6h-1.6v1.6h-1.6v-1.6h-1.6v1.6h-1.6v-1.6h-1.6v1.6h-1.6v-1.6h-1.6v1.6h-1.6v-1.6h1.6v-1.6h1.6v-1.6h1.6v-1.6h1.6v-1.6h1.6v-1.6h1.6v-1.6h1.6v-1.6h1.6v-1.6h1.6v1.6zM22.4 14.4h1.6v-1.6h-1.6v1.6zM22.4 16v-1.6h-1.6v1.6h-1.6v1.6h-1.6v1.6h-1.6v1.6h-1.6v1.6h-1.6v1.6h1.6v-1.6h1.6v1.6h1.6v-1.6h1.6v1.6h1.6v-1.6h1.6v1.6h1.6v-1.6h-1.6v-1.6h1.6v-1.6h-1.6v-1.6h1.6v-1.6h-1.6zM20.8 17.6h1.6v-1.6h-1.6v1.6zM20.8 19.2v-1.6h-1.6v1.6h-1.6v1.6h-1.6v1.6h1.6v-1.6h1.6v1.6h1.6v-1.6h1.6v-1.6h-1.6zM20.8 19.2v1.6h-1.6v-1.6h1.6z"></path>
</svg>
