<!-- Generated by IcoMoon.io -->
<svg version="1.1" xmlns="http://www.w3.org/2000/svg" width="32" height="32" viewBox="0 0 32 32">
<title>border</title>
<path d="M5.6 5.6h23.2c0-1.325-1.075-2.4-2.4-2.4h-20.8c-1.325 0-2.4 1.075-2.4 2.4v20.8c0 1.325 1.075 2.4 2.4 2.4v-23.2zM8 26.4v2.4h2.4v-2.4h-2.4zM12.8 26.4v2.4h2.4v-2.4h-2.4zM17.6 26.4v2.4h2.4v-2.4h-2.4zM22.4 26.4v2.4h2.4v-2.4h-2.4zM28.8 8h-2.4v2.4h2.4v-2.4zM28.8 12.8h-2.4v2.4h2.4v-2.4zM28.8 17.6h-2.4v2.4h2.4v-2.4zM28.8 22.4h-2.4v2.4h2.4v-2.4zM28.8 26.4h-2.4v2.4c1.326 0 2.4-1.075 2.4-2.4z"></path>
</svg>
