<!-- Generated by IcoMoon.io -->
<svg version="1.1" xmlns="http://www.w3.org/2000/svg" width="20" height="20" viewBox="0 0 20 20">
<title>grid-boxes</title>
<path d="M7.5 2.5v5h-5v-5h5zM2.5 1c-0.828 0-1.5 0.672-1.5 1.5v5c0 0.828 0.672 1.5 1.5 1.5h5c0.828 0 1.5-0.672 1.5-1.5v-5c0-0.828-0.672-1.5-1.5-1.5h-5z"></path>
<path d="M17.688 2.5v5h-5v-5h5zM12.688 1c-0.828 0-1.5 0.672-1.5 1.5v5c0 0.828 0.672 1.5 1.5 1.5h5c0.828 0 1.5-0.672 1.5-1.5v-5c0-0.828-0.672-1.5-1.5-1.5h-5z"></path>
<path d="M7.5 12.5v5h-5v-5h5zM2.5 11c-0.828 0-1.5 0.672-1.5 1.5v5c0 0.828 0.672 1.5 1.5 1.5h5c0.828 0 1.5-0.672 1.5-1.5v-5c0-0.828-0.672-1.5-1.5-1.5h-5z"></path>
<path d="M17.688 12.5v5h-5v-5h5zM12.688 11c-0.828 0-1.5 0.672-1.5 1.5v5c0 0.828 0.672 1.5 1.5 1.5h5c0.828 0 1.5-0.672 1.5-1.5v-5c0-0.828-0.672-1.5-1.5-1.5h-5z"></path>
</svg>
