<!-- Generated by IcoMoon.io -->
<svg version="1.1" xmlns="http://www.w3.org/2000/svg" width="32" height="32" viewBox="0 0 32 32">
<title>layout_8</title>
<path d="M24 8h4.571v4.571h-4.571v-4.571zM3.429 12.571v-4.571h4.571v4.571h-4.571z"></path>
<path d="M24 13.714h4.571v4.571h-4.571v-4.571zM3.429 18.286v-4.571h4.571v4.571h-4.571z"></path>
<path d="M24 19.429h4.571v4.571h-4.571v-4.571zM3.429 24v-4.571h4.571v4.571h-4.571z"></path>
<path d="M18.877 15.369c0.946 0.466 1.639 1.008 2.078 1.625 0.439 0.603 0.658 1.296 0.658 2.078 0 0.754-0.219 1.447-0.658 2.078s-1.090 1.138-1.954 1.522c-0.85 0.37-1.858 0.555-3.024 0.555-1.125 0-2.105-0.178-2.942-0.535-0.823-0.37-1.454-0.864-1.893-1.481-0.425-0.631-0.638-1.323-0.638-2.078 0-0.782 0.219-1.461 0.658-2.037s1.063-1.035 1.872-1.378c-1.33-0.837-1.995-1.947-1.995-3.333 0-0.727 0.213-1.378 0.638-1.954s1.015-1.022 1.769-1.337c0.768-0.329 1.639-0.494 2.613-0.494 1.509 0 2.722 0.322 3.641 0.967s1.378 1.529 1.378 2.654c0 0.59-0.185 1.159-0.555 1.707-0.357 0.549-0.905 1.029-1.646 1.44zM16.079 11.029c-0.466 0-0.837 0.123-1.111 0.37-0.261 0.233-0.391 0.583-0.391 1.049 0 0.411 0.11 0.761 0.329 1.049 0.233 0.274 0.597 0.521 1.090 0.741l0.473 0.206c0.411-0.302 0.693-0.61 0.843-0.926 0.151-0.329 0.226-0.699 0.226-1.111s-0.13-0.741-0.391-0.987c-0.247-0.261-0.603-0.391-1.070-0.391zM16.1 20.656c0.603 0 1.063-0.151 1.378-0.453 0.329-0.315 0.494-0.706 0.494-1.173 0-0.507-0.144-0.905-0.432-1.193-0.274-0.288-0.761-0.569-1.461-0.843l-0.72-0.267c-0.809 0.48-1.214 1.214-1.214 2.201 0 0.521 0.178 0.939 0.535 1.255s0.83 0.473 1.419 0.473z"></path>
</svg>
