<!-- Generated by IcoMoon.io -->
<svg version="1.1" xmlns="http://www.w3.org/2000/svg" width="32" height="32" viewBox="0 0 32 32">
<title>layout_4</title>
<path d="M24 7.354h5.313v5.312h-5.313v-5.313zM24 25.979v-5.313h5.313v5.313h-5.313zM17.313 25.979v-5.313h5.375v5.313h-5.375zM10.688 25.979v-5.313h5.313v5.313h-5.313zM4 25.979v-5.313h5.313v5.313h-5.313zM24 19.354v-5.375h5.313v5.375h-5.313zM17.313 7.354h5.375v5.312h-5.375v-5.313zM10.688 12.667v-5.313h5.313v5.313h-5.313zM17.313 19.354v-5.375h5.375v5.375h-5.375zM10.688 19.354v-5.375h5.313v5.375h-5.313zM4 19.354v-5.375h5.313v5.375h-5.313zM4 12.667v-5.313h5.313v5.313h-5.313z"></path>
</svg>
