<!-- Generated by IcoMoon.io -->
<svg version="1.1" xmlns="http://www.w3.org/2000/svg" width="32" height="32" viewBox="0 0 32 32">
<title>layout_6</title>
<path d="M24 8h4.571v4.571h-4.571v-4.571zM3.429 12.571v-4.571h4.571v4.571h-4.571z"></path>
<path d="M24 13.714h4.571v4.571h-4.571v-4.571zM3.429 18.286v-4.571h4.571v4.571h-4.571z"></path>
<path d="M24 19.429h4.571v4.571h-4.571v-4.571zM3.429 24v-4.571h4.571v4.571h-4.571z"></path>
<path d="M17.162 13.415c0.782 0 1.474 0.185 2.078 0.555 0.617 0.37 1.097 0.905 1.44 1.605s0.514 1.536 0.514 2.51c0 0.933-0.213 1.797-0.638 2.592-0.411 0.782-1.015 1.406-1.81 1.872-0.782 0.453-1.707 0.679-2.777 0.679-1.838 0-3.216-0.59-4.135-1.769-0.905-1.193-1.358-2.839-1.358-4.937 0-1.577 0.254-2.962 0.761-4.155 0.521-1.193 1.255-2.119 2.201-2.777 0.96-0.658 2.085-0.987 3.374-0.987 1.262 0 2.345 0.309 3.25 0.926l-1.317 2.16c-0.603-0.357-1.221-0.535-1.851-0.535-0.713 0-1.296 0.288-1.749 0.864s-0.727 1.413-0.823 2.51c0.795-0.741 1.742-1.111 2.839-1.111zM15.989 20.656c0.521 0 0.905-0.219 1.152-0.658 0.261-0.453 0.391-1.077 0.391-1.872 0-0.823-0.117-1.399-0.35-1.728-0.233-0.343-0.61-0.514-1.131-0.514-0.288 0-0.583 0.075-0.885 0.226-0.302 0.137-0.583 0.343-0.843 0.617 0 0.974 0.048 1.749 0.144 2.325 0.11 0.562 0.281 0.974 0.514 1.234 0.247 0.247 0.583 0.37 1.008 0.37z"></path>
</svg>
