<!-- Generated by IcoMoon.io -->
<svg version="1.1" xmlns="http://www.w3.org/2000/svg" width="32" height="32" viewBox="0 0 32 32">
<title>numbers</title>
<path d="M28 23.354v-18.688h-18.688v18.688h18.688zM28 1.979c1.438 0 2.688 1.25 2.688 2.688v18.688c0 1.438-1.25 2.625-2.688 2.625h-18.688c-1.438 0-2.625-1.188-2.625-2.625v-18.688c0-1.438 1.188-2.688 2.625-2.688h18.688zM20 20.667v-5.313h-5.313v-8h2.625v5.313h2.688v-5.313h2.688v13.313h-2.688zM4 7.354v21.313h21.313v2.688h-21.313c-1.438 0-2.688-1.25-2.688-2.688v-21.313h2.688z"></path>
</svg>
