<!-- Generated by IcoMoon.io -->
<svg version="1.1" xmlns="http://www.w3.org/2000/svg" width="32" height="32" viewBox="0 0 32 32">
<title>video</title>
<path d="M24 12.667v-2.688h-2.688v2.688h2.688zM24 17.979v-2.625h-2.688v2.625h2.688zM24 23.354v-2.688h-2.688v2.688h2.688zM10.688 12.667v-2.688h-2.688v2.688h2.688zM10.688 17.979v-2.625h-2.688v2.625h2.688zM10.688 23.354v-2.688h-2.688v2.688h2.688zM24 4.667h2.688v24h-2.688v-2.688h-2.688v2.688h-10.625v-2.688h-2.688v2.688h-2.688v-24h2.688v2.688h2.688v-2.688h10.625v2.688h2.688v-2.688z"></path>
</svg>
